<?xml version="1.0" encoding="UTF-8"?>
<!DOCTYPE svg PUBLIC "-//W3C//DTD SVG 1.1//EN" "http://www.w3.org/Graphics/SVG/1.1/DTD/svg11.dtd">
<!-- Creator: CorelDRAW X7 -->
<svg xmlns="http://www.w3.org/2000/svg" xml:space="preserve" width="270px" height="252px" version="1.1" style="shape-rendering:geometricPrecision; text-rendering:geometricPrecision; image-rendering:optimizeQuality; fill-rule:evenodd; clip-rule:evenodd"
viewBox="0 0 246 230"
 xmlns:xlink="http://www.w3.org/1999/xlink">
 <defs>
  <style type="text/css">
   <![CDATA[
    .str0 {stroke:gray;stroke-width:0.819812}
    .fil0 {fill:none}
    .fil1 {fill:gray}
   ]]>
  </style>
 </defs>
 <g id="Layer_x0020_1">
  <metadata id="CorelCorpID_0Corel-Layer"/>
  <rect class="fil0" width="246" height="230" rx="22" ry="19"/>
  <path class="fil0" d="M15 0l74 0 1 230 -75 0c-8,0 -15,-10 -15,-21l0 -189c0,-11 7,-20 15,-20z"/>
  <rect class="fil1" x="98" y="22" width="90.007" height="8.76806"/>
  <rect class="fil1 str0" x="98" y="52" width="26.5835" height="4.38403"/>
  <rect class="fil1 str0" x="132" y="52" width="44.9023" height="4.38403"/>
  <rect class="fil1 str0" x="181" y="52" width="6.57039" height="4.38403"/>
  <rect class="fil1 str0" x="191" y="52" width="37.1381" height="4.38403"/>
  <rect class="fil1 str0" x="98" y="65" width="44.9023" height="4.38403"/>
  <rect class="fil1 str0" x="188" y="65" width="6.57039" height="4.38403"/>
  <rect class="fil1 str0" x="146" y="65" width="37.1381" height="4.38403"/>
  <rect class="fil1 str0" x="199" y="65" width="13.1408" height="4.38403"/>
  <rect class="fil1 str0" x="119" y="78" width="13.1408" height="4.38403"/>
  <rect class="fil1 str0" x="138" y="78" width="37.1381" height="4.38403"/>
  <rect class="fil1 str0" x="98" y="113" width="90.007" height="8.76806"/>
  <rect class="fil1 str0" x="98" y="143" width="26.5835" height="4.38403"/>
  <rect class="fil1 str0" x="132" y="143" width="44.9023" height="4.38403"/>
  <rect class="fil1 str0" x="181" y="143" width="6.57039" height="4.38403"/>
  <rect class="fil1 str0" x="191" y="143" width="37.1381" height="4.38403"/>
  <rect class="fil1 str0" x="98" y="156" width="44.9023" height="4.38403"/>
  <rect class="fil1 str0" x="188" y="156" width="6.57039" height="4.38403"/>
  <rect class="fil1 str0" x="146" y="156" width="37.1381" height="4.38403"/>
  <rect class="fil1 str0" x="199" y="156" width="13.1408" height="4.38403"/>
  <rect class="fil1 str0" x="119" y="169" width="13.1408" height="4.38403"/>
  <rect class="fil1 str0" x="138" y="169" width="37.1381" height="4.38403"/>
  <rect class="fil1 str0" x="19" y="22" width="50.8721" height="8.76806"/>
  <rect class="fil1 str0" x="19" y="47" width="50.8721" height="8.76806"/>
  <rect class="fil1 str0" x="19" y="71" width="50.8721" height="8.76806"/>
  <rect class="fil1 str0" x="19" y="96" width="50.8721" height="8.76806"/>
  <rect class="fil1 str0" x="19" y="121" width="50.8721" height="8.76806"/>
  <rect class="fil1 str0" x="19" y="146" width="50.8721" height="8.76806"/>
  <rect class="fil1 str0" x="19" y="171" width="50.8721" height="8.76806"/>
  <rect class="fil1 str0" x="19" y="196" width="50.8721" height="8.76806"/>
 </g>
</svg>
